<mxfile host="app.diagrams.net" modified="2023-10-07T19:54:52.246Z" agent="Mozilla/5.0 (X11; Linux x86_64) AppleWebKit/537.36 (KHTML, like Gecko) Chrome/111.0.0.0 Safari/537.36" etag="k4_Hnqwwib4SldpEg1YK" version="22.0.0" type="device">
  <diagram id="RzVQ98fjNsNoUl9BXC8D" name="Page-1">
    <mxGraphModel dx="1799" dy="940" grid="0" gridSize="10" guides="1" tooltips="1" connect="1" arrows="1" fold="1" page="1" pageScale="1" pageWidth="850" pageHeight="1100" math="0" shadow="0">
      <root>
        <mxCell id="0" />
        <mxCell id="1" parent="0" />
        <mxCell id="wI26p4mS2MI4SApwKy1P-7" value="" style="rounded=0;whiteSpace=wrap;html=1;direction=north;fillColor=#e1d5e7;strokeColor=none;gradientColor=none;verticalAlign=top;opacity=50;" vertex="1" parent="1">
          <mxGeometry x="758" y="146" width="150" height="570" as="geometry" />
        </mxCell>
        <mxCell id="wI26p4mS2MI4SApwKy1P-6" value="" style="rounded=0;whiteSpace=wrap;html=1;direction=north;fillColor=#e1d5e7;strokeColor=none;gradientColor=none;verticalAlign=top;opacity=50;" vertex="1" parent="1">
          <mxGeometry x="982" y="146" width="150" height="570" as="geometry" />
        </mxCell>
        <mxCell id="wI26p4mS2MI4SApwKy1P-3" value="" style="rounded=0;whiteSpace=wrap;html=1;direction=north;fillColor=#e1d5e7;strokeColor=none;gradientColor=none;verticalAlign=top;opacity=50;" vertex="1" parent="1">
          <mxGeometry x="533" y="146" width="150" height="570" as="geometry" />
        </mxCell>
        <mxCell id="-YTG2AytPrKZjc665ewB-10" style="edgeStyle=orthogonalEdgeStyle;orthogonalLoop=1;jettySize=auto;html=1;rounded=1;strokeColor=#766f6f;dashed=1;" edge="1" parent="1" source="-YTG2AytPrKZjc665ewB-12" target="-YTG2AytPrKZjc665ewB-19">
          <mxGeometry relative="1" as="geometry" />
        </mxCell>
        <mxCell id="-YTG2AytPrKZjc665ewB-30" style="edgeStyle=orthogonalEdgeStyle;orthogonalLoop=1;jettySize=auto;html=1;rounded=1;strokeColor=#766f6f;dashed=1;" edge="1" parent="1" source="-YTG2AytPrKZjc665ewB-31" target="-YTG2AytPrKZjc665ewB-26">
          <mxGeometry relative="1" as="geometry" />
        </mxCell>
        <mxCell id="-YTG2AytPrKZjc665ewB-50" style="edgeStyle=orthogonalEdgeStyle;rounded=1;orthogonalLoop=1;jettySize=auto;html=1;fontFamily=Helvetica;fontSize=11;fontColor=default;strokeColor=#766f6f;entryX=0.75;entryY=0;entryDx=0;entryDy=0;" edge="1" parent="1" target="-YTG2AytPrKZjc665ewB-19">
          <mxGeometry relative="1" as="geometry">
            <mxPoint x="418" y="433" as="sourcePoint" />
            <mxPoint x="797" y="68" as="targetPoint" />
            <Array as="points">
              <mxPoint x="496" y="433" />
              <mxPoint x="496" y="130" />
              <mxPoint x="867" y="130" />
            </Array>
          </mxGeometry>
        </mxCell>
        <mxCell id="wI26p4mS2MI4SApwKy1P-11" style="edgeStyle=orthogonalEdgeStyle;rounded=1;orthogonalLoop=1;jettySize=auto;html=1;fontFamily=Helvetica;fontSize=11;fontColor=default;strokeColor=#766f6f;" edge="1" parent="1" source="-YTG2AytPrKZjc665ewB-43">
          <mxGeometry relative="1" as="geometry">
            <mxPoint x="384" y="399" as="targetPoint" />
          </mxGeometry>
        </mxCell>
        <mxCell id="wI26p4mS2MI4SApwKy1P-12" style="edgeStyle=orthogonalEdgeStyle;rounded=1;orthogonalLoop=1;jettySize=auto;html=1;fontFamily=Helvetica;fontSize=11;fontColor=default;strokeColor=#766f6f;" edge="1" parent="1" source="-YTG2AytPrKZjc665ewB-35">
          <mxGeometry relative="1" as="geometry">
            <mxPoint x="384" y="466.9999999999998" as="targetPoint" />
          </mxGeometry>
        </mxCell>
        <mxCell id="-YTG2AytPrKZjc665ewB-6" value="" style="rounded=0;whiteSpace=wrap;html=1;direction=north;fillColor=#e1d5e7;strokeColor=none;gradientColor=none;verticalAlign=top;opacity=50;" vertex="1" parent="1">
          <mxGeometry x="84" y="146" width="150" height="570" as="geometry" />
        </mxCell>
        <mxCell id="-YTG2AytPrKZjc665ewB-34" value="" style="group" vertex="1" connectable="0" parent="1">
          <mxGeometry x="128.5" y="515.5" width="61" height="61" as="geometry" />
        </mxCell>
        <UserObject label="fala-parlamentar" id="-YTG2AytPrKZjc665ewB-35">
          <mxCell style="html=1;verticalLabelPosition=bottom;verticalAlign=top;imageAspect=1;aspect=fixed;strokeColor=none;fillColor=#fff2cc;" vertex="1" parent="-YTG2AytPrKZjc665ewB-34">
            <mxGeometry width="61" height="61" as="geometry" />
          </mxCell>
        </UserObject>
        <UserObject label="Querido DiÃ¡rio API" id="-YTG2AytPrKZjc665ewB-43">
          <mxCell style="shape=image;html=1;verticalLabelPosition=bottom;verticalAlign=top;imageAspect=1;aspect=fixed;image=https://avatars.githubusercontent.com/u/1666382?s=200&amp;v=4;" vertex="1" parent="1">
            <mxGeometry x="125" y="284.5" width="68" height="68" as="geometry" />
          </mxCell>
        </UserObject>
        <mxCell id="2v_L7LmZGW6_UPbGGz43-8" value="Data Sources" style="text;html=1;strokeColor=none;fillColor=#e1d5e7;align=center;verticalAlign=middle;whiteSpace=wrap;rounded=0;fontSize=12;fontFamily=Helvetica;" vertex="1" parent="1">
          <mxGeometry x="85" y="686" width="148" height="30" as="geometry" />
        </mxCell>
        <mxCell id="2v_L7LmZGW6_UPbGGz43-33" style="edgeStyle=orthogonalEdgeStyle;rounded=1;orthogonalLoop=1;jettySize=auto;html=1;fontFamily=Helvetica;fontSize=11;fontColor=default;strokeColor=#766f6f;" edge="1" parent="1" source="2v_L7LmZGW6_UPbGGz43-10" target="wI26p4mS2MI4SApwKy1P-5">
          <mxGeometry relative="1" as="geometry">
            <Array as="points">
              <mxPoint x="832" y="735" />
              <mxPoint x="1168" y="735" />
              <mxPoint x="1168" y="431" />
            </Array>
          </mxGeometry>
        </mxCell>
        <mxCell id="2v_L7LmZGW6_UPbGGz43-10" value="Data Lake Storage" style="text;html=1;strokeColor=none;fillColor=#e1d5e7;align=center;verticalAlign=middle;whiteSpace=wrap;rounded=0;fontSize=12;fontFamily=Helvetica;" vertex="1" parent="1">
          <mxGeometry x="759" y="686" width="148" height="30" as="geometry" />
        </mxCell>
        <mxCell id="2v_L7LmZGW6_UPbGGz43-11" value="Catalog" style="text;html=1;strokeColor=none;fillColor=#e1d5e7;align=center;verticalAlign=middle;whiteSpace=wrap;rounded=0;fontSize=12;fontFamily=Helvetica;" vertex="1" parent="1">
          <mxGeometry x="534" y="686" width="148" height="30" as="geometry" />
        </mxCell>
        <mxCell id="2v_L7LmZGW6_UPbGGz43-20" value="" style="group" vertex="1" connectable="0" parent="1">
          <mxGeometry x="777" y="337" width="120" height="295" as="geometry" />
        </mxCell>
        <mxCell id="-YTG2AytPrKZjc665ewB-21" value="" style="group" vertex="1" connectable="0" parent="2v_L7LmZGW6_UPbGGz43-20">
          <mxGeometry y="117" width="120" height="62" as="geometry" />
        </mxCell>
        <mxCell id="-YTG2AytPrKZjc665ewB-22" value="stage" style="rounded=0;whiteSpace=wrap;html=1;align=right;strokeColor=none;" vertex="1" parent="-YTG2AytPrKZjc665ewB-21">
          <mxGeometry width="120" height="62.00000000000001" as="geometry" />
        </mxCell>
        <mxCell id="-YTG2AytPrKZjc665ewB-24" style="edgeStyle=orthogonalEdgeStyle;rounded=0;orthogonalLoop=1;jettySize=auto;html=1;exitX=0.5;exitY=1;exitDx=0;exitDy=0;" edge="1" parent="-YTG2AytPrKZjc665ewB-21" source="-YTG2AytPrKZjc665ewB-22" target="-YTG2AytPrKZjc665ewB-22">
          <mxGeometry relative="1" as="geometry" />
        </mxCell>
        <UserObject label="S3" id="2v_L7LmZGW6_UPbGGz43-17">
          <mxCell style="shape=image;html=1;verticalLabelPosition=bottom;verticalAlign=top;imageAspect=1;aspect=fixed;image=https://cdn.worldvectorlogo.com/logos/amazon-s3-simple-storage-service.svg;" vertex="1" parent="-YTG2AytPrKZjc665ewB-21">
            <mxGeometry width="62" height="62" as="geometry" />
          </mxCell>
        </UserObject>
        <mxCell id="-YTG2AytPrKZjc665ewB-25" value="" style="group" vertex="1" connectable="0" parent="2v_L7LmZGW6_UPbGGz43-20">
          <mxGeometry y="233" width="120" height="62" as="geometry" />
        </mxCell>
        <mxCell id="-YTG2AytPrKZjc665ewB-26" value="analytics" style="rounded=0;whiteSpace=wrap;html=1;align=right;strokeColor=none;" vertex="1" parent="-YTG2AytPrKZjc665ewB-25">
          <mxGeometry width="120" height="62.00000000000001" as="geometry" />
        </mxCell>
        <UserObject label="S3" id="2v_L7LmZGW6_UPbGGz43-18">
          <mxCell style="shape=image;html=1;verticalLabelPosition=bottom;verticalAlign=top;imageAspect=1;aspect=fixed;image=https://cdn.worldvectorlogo.com/logos/amazon-s3-simple-storage-service.svg;" vertex="1" parent="-YTG2AytPrKZjc665ewB-25">
            <mxGeometry width="62" height="62" as="geometry" />
          </mxCell>
        </UserObject>
        <mxCell id="-YTG2AytPrKZjc665ewB-19" value="raw" style="rounded=0;whiteSpace=wrap;html=1;align=right;strokeColor=none;" vertex="1" parent="2v_L7LmZGW6_UPbGGz43-20">
          <mxGeometry width="120" height="62" as="geometry" />
        </mxCell>
        <UserObject label="S3" id="2v_L7LmZGW6_UPbGGz43-2">
          <mxCell style="shape=image;html=1;verticalLabelPosition=bottom;verticalAlign=top;imageAspect=1;aspect=fixed;image=https://cdn.worldvectorlogo.com/logos/amazon-s3-simple-storage-service.svg;" vertex="1" parent="2v_L7LmZGW6_UPbGGz43-20">
            <mxGeometry width="62" height="62" as="geometry" />
          </mxCell>
        </UserObject>
        <mxCell id="2v_L7LmZGW6_UPbGGz43-21" value="" style="group" vertex="1" connectable="0" parent="1">
          <mxGeometry x="577" y="178" width="62" height="482" as="geometry" />
        </mxCell>
        <mxCell id="2v_L7LmZGW6_UPbGGz43-30" style="edgeStyle=orthogonalEdgeStyle;rounded=1;orthogonalLoop=1;jettySize=auto;html=1;fontFamily=Helvetica;fontSize=11;fontColor=default;strokeColor=#766f6f;" edge="1" parent="2v_L7LmZGW6_UPbGGz43-21" source="-YTG2AytPrKZjc665ewB-53" target="-YTG2AytPrKZjc665ewB-12">
          <mxGeometry relative="1" as="geometry" />
        </mxCell>
        <UserObject label="Glue" id="-YTG2AytPrKZjc665ewB-53">
          <mxCell style="shape=image;html=1;verticalLabelPosition=bottom;verticalAlign=top;imageAspect=1;aspect=fixed;image=data:image/jpeg,/9j/4AAQSkZJRgABAQAAAQABAAD/2wCEAAoHCA8REBAPERISDw8PEhEQDw8QEhkaEg8QGBMZJhwTGhkbIS0kGx0sJRkYM0UlKi4xNDQ1GiQ6PzozPi82NDEBCwsLEA8QHRISHTkrISozPjQzMzE+MzEzNTExNT4zMzMxMzMxMTMzMzMzMzMzMzMzMzMzMzUzMTQzMTEzMTMzM//AABEIAOEA4QMBIgACEQEDEQH/xAAbAAADAAMBAQAAAAAAAAAAAAAAAQIDBgcEBf/EAEMQAAIBAgEFDAYJBAEFAAAAAAABAgMRBAUGEiExExQzQVFTYXFzk7LRByIygaGxI0JDUnKCkZLBFjRiwhUXNWOj0v/EABoBAQADAQEBAAAAAAAAAAAAAAABAwUCBAb/xAAxEQACAQIFAgQEBQUAAAAAAAAAAQIDEQQSITFRcfATQWHRIjLB4UKBobHxBRUjkZL/2gAMAwEAAhEDEQA/APPjMXV3Wr9JPhKmrdJfffSYd+Vudqd5LzJxvC1e0qeNmI+rjFWWh6T0b8rc7U7yXmPflbnKneS8zzDJyrgHo35W5yp3kvMe+63OVO8l5nnAnKuAenfdbnKneS8w35V5yp3kvM84xlXAPRvqrzk+8l5j33V5yfeS8zzjGVcE2M++6vOT7yXmPfdXnJ95LzMADKuAZ991ecn3kvMe+qvOT7yXmYBjKuAZ991ecn3kvMN91ecn3kvMwATZcA9G+6vOz7yXmPfdXnZ95LzMAxZcCxn33V52feS8x76q85P98vM84Cy4Fj0b6q85P98vMe+qv35/vl5nnGLLgWPRvqrzk/3y8w31V5yf75eZgGMq4FjNvqrzk/3y8x76q85P98vMwDGVcCxn31V5yf75eY99Vecqfvl5mETJSXBJue6T+9L9zAxAY5RY0PG8LV7Sp42YjLjeFq9pU8bMJqx2RaMYgOgUMkYAxiAAoZIwSUMkYAxiAAoBDJAFEgAWAhgkBiAAoZIwCgEMAYMQ2SgbgBIGNcpNExvDVe0qeNmEy43hqvaVPGzEasflRYgGIDoDGIAChkjAGMQAFDJGCSjPg8LUrTVKlBznLVGKtrsuV6kulnnNlzB/vl2VT+CutNwpykvJESdkT/R2UObj3kfMw4nNfHUoSqTpJxgnKejNNqK2uyd37jdM5s5JYKdKMaUam6RlJuU3HRs9mxn0cNjHXwSruKi6tGUnFO6jeL1X4zLeNxEYxm4rK+vuV55WuchASGbJaBRIAFgIYJAYgAKGSMAoGIGSgbgAAYxSaHjeGq9pU8bMBmxvDVe0qeNmA1Y7IsRYElHQAYgAGMQAFDJGAe3JeT6mJrRo07aUru8naMYpXcmbP/0/xHPUv0l5HhzA/v49lU+SNmzyzhxGDnRjR0LVISlLTi27qS2a1ymfXrV/GVKlba+v5nDbvZHwMZmPiqdOVRVKdTQi5OMdJSkktdrq1zy5k4iFPGwc5KKlCcIyk7LSdrK/Fex0DJ2LnXwEK07adSjKUrKyvZ7EcfWxdRGHnOvCpTqP0079BFt3TOx4/J+DxDjKtCFSUE1FylsT4tTFi6uHw+FnFSjTpU6cowWls9V2itd2+g47boGvccr+mOyTqNpeVvu/2Hh+pa2AJMDULCgEMACiQALAQwSAxAAUDENhA3EAAxyk0HG8NV7Sp42YDNjuGq9pU8bMRqR2XQsQDJGdgsCSgAGIABjPVk/J1fEz0aFOdSS9rRXqx/FJ6o+9m0YL0f4iVnVq06XRBOcl1+yviympiKdP55W743Icktz5GaWUKWHxkKlV6EHGcHO11FyWpu3Ff5nRquWclzs5V8LO2xzlB2/U+PR9H+EXt1a03yJwivC38T208ysnLbTnPplVl/q0ZWJq4arPM3K+2i9yuTizJjc4cn06FRRrUpWhKMKdJpttp2iorZ8jlCOtRzTybH7CP5qk385Hw878k4KjhJToU6cainBJxd5Wb18ZZg69GEskM3xPzt9GTCSWhj9HmBozhiKlSEJyjOMIucU9GOjfVfZt+BslTF5NjN0pSw0aikoODjDSU3sVrbdaPi+jXgcT2sfAgxuaFWpjJYpVYKEq0aug09Kya1X9xVXUJYiaqSaXl7EStmdzJn3gKEcJusacIThUilKEUnaV007bUc7OnZ//ANhLtKfzNZzYzXp4zDyqzqTpyjUlCGiouLioxd2mr7W+PiPTgq0aeGzTelzqDtG7NXGbjicway4KvTl0VIyj8VpGuZSyPicNw1OUY3sqi9aD/MtS6nZntp4ilUdoyT74Z2pJ7HiAQy8kCiQALAQwSBRIwgbiAAY5SaBjuGq9pV8bMRlx3DVu0qeNmA1I7LodliAZJIDJGdAsCSgSdlzYjQWCobhbQdOLk1tdS3rOX+V73PBlmWW7y3tHD6H1dB3qW6d0tH9DTsyMub2r7lUdsPXajJvZCpsjPoXE/c+I6JlvH1MNQlXhS3fc3epDS0WqfHNOzvbk5L69RgVacqNe1lLNtf1+vkUNWZz7HSy79pvxcu5KSX/q1HxMRVxP2sq/Tusp/wCxv1H0g4R+3SrwfQoNeJP4Htp565Oe2rKH4qU/9Uz2KvWhvR/5/hnSb4OU3T17Rqx1v+pclz21qb/HCS+cQ/5fJL+1wvvUf5R3/cKnnSl3+RPiPg5vkfLmIwjm6MopTtpwmrxbWx9D1vYfW/rvH/8Ag7t//RuX/L5IX2mF90Y/whf1HkuGyrSX4YS/iJRKupu7oNvv0Ivf8JoOUsu43GwjCWuEZaWhSpu0pcTe1vazJkynlemtHDwxMIXuo6ElTvy2ktE3eeeeTlsqyn+GlP8AlI8lXP3CL2Kdeb/DBL4yv8DtVquXLGhZcPb6XF3wXkmWXLrdY4fRv6zrNKdujctV+tGxYzctynu2juWi910/Y0ba734j5+b+Vp4ynKs6O40tLRpty0nUttexWSerj1p8hqefmW90nvOm/UpNOs19aotkOpfPqPH4Uq1bI4qLW9vL9d/qc2bkai7Xdr2vqvttxXAQH0BeUAhkgCiQALBiBhEm5gIDGKTQMdw1XtKnjZgM2O4at2lXxswmrHZdDsZRBRJKKEAwAGSM6AzqeZGW1iqDw9V3r0IqMr691o7FLXtfE/c+M5YezJWUJ4avCvD2oPXG+qUX7UX0Nfw+I82KoKtTy+fl1+5zKN0fSzsyI8HiGop7hVvOi+RX1w643XuaPiHXcp4SjlPApwa+kiqtCb2wqJbH8U11nJKtOVOcoSi4yhJwlF7YyT1pnGDxHiwtL5lo/f39RB3RIxAew6KGSMAZ9HIeTJYvEQoq6T9apNfUprbLr2JdLR846pmrkmOBwrqVbRqzjuteT+zildQ/Kr36WzzYvEeDTut3ouv2/exzKVkZM4spQwGEUaSUZuO44eC+rZe11RXxa5TlTk222222223dtvjbPo5wZWli8ROs7qC9SjB/VprZ73tfX0HzSMHh/Bhr8z379P3uTFWRQyRnqOhjEABQCGSAGIbCJNzAQGKec5/juGrdpV8bMJmx3DVu0q+NmE1o7LoWoYCGSBlEDALEAwSBRAzoG5ZgZc3GrvSo/oq8vo29kK3J1S2dduVnu9IWQ9mOpx+7DEJfpGp8k/y9JoCfu5GtqOtZq5Whj8LKnVtKrCO5YiL+vFqynbkkr+9MzMVF0aixEekl33fqVyVnmOTjPp5xZIng8TOi7uD9ejN/Xpt6vetj6r8Z8s0YyUkpLZlgxiPZkvATxNaFCn7U3bStqhHjm+hLyJbSV3sDZMw8ibtV31UV6VCS3NPZOttT6o6n125Ge7P/AC3swVN/dniGv1jT+Tf5eVn38pYqjkzApQS+jjudCPHOq09b+Lb6zk9WrKpOU5Sc5Tk5yk9spN62ZuHTxFZ1pfKtI9969DhfE7skYgNM7KGSMElDJGAMYgAKAQMlA3QAAxSk59juGrdpV8bMJmx3DVu0q+NnnNaOy6FhYCGSBgIYBQyBgm5YgGAB9PIOVZYPEU60buK9WrBfXpvbHr2NdKR8sYlFSTT2YOu5yZMhlDBqVJqU1HdsNNbJXXs35JL42fEclaabTTTTaaas01tTXEzoPo1yhOUK2Fl60KVqlNvbDSfrQ6r6/ezX8+6EIY+porR04wqSS2Ocr3fvt+tzOwjdKpLDvVLVd963OI6Oxrx1HMfIu9qG+Ki0a1eKk76tzo7VHXsb2v3LiNBzaoQqY3DQmlKMqkdKL2Ssm7Po1G++kHKE6OFjTp6t8TdOcuNU1G7iuvUuq51jZSnKNCP4t+gnrojTc7MtPGYhuL+gpXhRXKuOf5rfokfDEB7oQUIqMdkdpWKGSM7AxiAAoZIwSUMkYAwYA9hKBugABilJz/HcNW7Sr42ecz47hq3aVfGzAa0dl0LEBRIEgsZIwBgIYBQyCgSUIAANx9HOMpU8RWhOcabqwioabSUpKXspvj17Ohm4ZazVwuLqbtUdWNTRUXKnJK6WzVJNcZyGlBzlGCtecowV9l27I2fH5FypgKDqvEOnSi4x0aGIqrXJ2XqpJHgxFD/Kpxnlk9CtrW9zccmZm4PD1YVoyrTnTd4upKNk7bbRir7T4npJxlKSoUYyjKpCc5ThFpuK0betbY+joPi5KwWVMoU5yhiakoQkoTjVxNSzbV/Z1o+Hj8HPD1Z0amjp05aM7O8b2T1P3kUcO/GzTqZpR8u/VhLXVmEYgNIsGMQAFDJGAMYgAKGSMElDewkb2EoG6gIDFKTn2P4at2tTxswGbH8NW7Wr42YDVjsuhYUAhnQAokACwEMAYCGAUevJ2TcTiZSjQpyqyik5aNkop7LttJbH+jPEbTmVnHDBTnTqx+hruLdSKvKnJX1tccdfWukrqynGDcFd8BvTQxYPNbKUatKUsPJRVSm29OGpKSu/aN49IX/b6naUvEbDTrRnTVSnKNSMo6UJKXqyTWp6Svq6TnOe2cNapF4Kph3h5KalNylpacU/VcWkk4t8fRblMqnVqYmtBtL4X00/Nlabk0fV9GHAYntY+BHxM483sdVxuIqU8PKUJzvGSlGzWitetnnzPzgqYVzoxovEbvKLhCLtPTS4tTurfpa51TDzm4KVSKpzavKKlpKPRpWVzrEVKmHryqJL4uf5Dbi7nFsfkjFYZRdelOlGTspSs4uVtl02r9HQeI3PPjOWliFvShacITU51vqylG9ow5Vr9r9OU0w08POc4KU1ZlkXpqAxAXEjGIAChkjAGMQAFDewkfESiUbsAgMUpOe4/hq3a1PGzAZ8dw1btanjZ5zVjsuhYUMkZ0CgEMACiQALAQwBgIYB9/NrOavgZaOuph5O9Sk3svtnF/Vl0bHx8q6NiKGCyrhlJPTjr0KkdVShO2tdD2XT1PV0HGj6GSMrV8JU3WjLRb1ShLXCpHklHj+a5Tx4nCZ3nhpPnnr7nMo31Oo5EyHhcm0p1ZyjKaX02JmtG0fuxV3ox2ar3erbqNMzqzunitKhQ0qeG2SeyVZf5fdj/jx8fIvlZczixONcd1ajCGuNKF1TUvvO7bcul7OK2s+SRh8K1LxKrvL9F3/peQjHzYxkjPedlgSUAAxAAMYgAKGSMAY+IQ+IlEo3YBAYhQc9x/DVu1qeNmAzY/hq3a1PGzCa0dl0LAGAjokoZIwCgEMACiQALAQwBgIYBQyCgSUIBgAMkZ0CwJKAAYgAGMQAFDewkfEESjdwEBilBzzH8NW7Wr42YTNj2t3ra/tanjZ57rlRrR2XQsLAm65UO65UdWAxiuuVBdcqFiShkXXKO/SLAsCb9I7rlJsBlE3XKF1yiwLAm65R3XKLAoBXXKF1yiwLGRcd0LEliFdDuhYkYxXQ9JE2BQEaSHdCwKGTdBpIWBQ+Um47qzJSBvADuIxbFBixHCT/ABy+bMaGBWiAAAJAAAAAMAAAEAADBAAAwACQMAAEggAAAGhAAUAASgAwAABoAAAAAlA+4AAeU5P/2Q==;" vertex="1" parent="2v_L7LmZGW6_UPbGGz43-21">
            <mxGeometry width="62" height="62" as="geometry" />
          </mxCell>
        </UserObject>
        <mxCell id="2v_L7LmZGW6_UPbGGz43-19" value="" style="group" vertex="1" connectable="0" parent="2v_L7LmZGW6_UPbGGz43-21">
          <mxGeometry x="11.5" y="113" width="39" height="369" as="geometry" />
        </mxCell>
        <UserObject label="Glue Crawler" id="-YTG2AytPrKZjc665ewB-12">
          <mxCell style="shape=image;html=1;verticalLabelPosition=bottom;verticalAlign=top;imageAspect=1;aspect=fixed;image=data:image/png,iVBORw0KGgoAAAANSUhEUgAAAOEAAADhCAMAAAAJbSJIAAAAk1BMVEX///+hZv+dXv/TvP+ZVf/Rt//+/f+iZ/+gZP+fYv+bWv+eYP+cXP+aWP/byP+eYf/Vv//69/+6kv/u5f/gz//q3//Jq//Nsf/n2v/28f+ocv+lbf/AnP/z7P/t4/+yhP/Gpv/Os//ezP+2jP/ZxP/Cn/+0h/+sef/8+f/k1v+ufP++mP/Vvv+5kP+qdf/o3P+VTf/M0e2vAAAOUElEQVR4nO1d53riOhC1HYosWxhCC22BBFJgd3Pf/+kuTaM2ssVNsEyuz698MCg6VpumcRAEQfct/IFozxfBBUtKfPfmJsjo05lgk/ruyq1A4taJ4fRnjuARdHAk2Ap/LsPo4czw56JmeP/QGBLWkBCBVOP+EKEMSTuQ8fsiFXWD+wN0XmPYkoWaitCdoVkzNIXuDDVDROjOUDNEhO4MNUNE6M5QM0SE7gw1Q0TozlAzRITuDDVDROjOUDNEhO4M/1+GitADF/rtpY9fwwPKMAwfJHQf4/OH8WP34d4AndcZRjJi/mkc3R945/93Pu8fiJrh/aNmeP/4vtOiakeL7bRAD02XE79q6oHlxP+K1lY1FQ/X2r6ieVdNTf9+26JmWDZqhojQVS36R80QEbqqRf+oGSJCV7XoHzVDROiqFv2jZogIXdWif9QMEaGrWvSPmiEidFWL/lEzRISuatE/aoaI0FUt+kfNEBG6qkX/qBmqQj/eI/yjvPoowx8UmbExvGfUDO8fNcP7R83wjB9/Wvz8E//na22lat6/Ot1O30Ww//S5yPm6qrbFOqFplFKybuXL9fcRPYCM3t36UxWGi1l6LtBB0nbuOI5YdpaL4ien/lSE4SSDDTkkLIfioyg2QxoDl/5UhOFUEDT6ImOtVNNJ8dVYRYYPqdzxMBpZ5CZMkYt3Dv2pBkO9DFBkkRtpqhb7VdyfSjBcqEMThtSyiRhPYlzcn0owHKiT1NpSL9Hk4pfi/lSCYcdgiI5NMNGrdsXL4v5UgqHzGOoWT/xa3J9KMOwb6/ADF5xp6zBZFfenEgyNnlOL3EhbiPiTqCLDpnYerixyk4YiR0KH/lSDYdCWB5HEVqV6rOw17NmhPxVhuIgERcI+7YIv0mjTrUt/KsIw6LczmHo5BINgC/spWzn1pyoMg+D1onynln2UA3wUHbf+VIfh6rJPptaen7G7MKSoTmr2pzoM+UkQNfPl+KZktyKrypD7jzLL/nFBi281rGcTGf9zrr33z/r0g8ow5Kob+Zsr1ufnhc3C0lEdhkPe9STXFdVxexAC1WHY4sqp2EIWm+1uRtrTl9EApiTfkLK5a7uVYQjmLW9ms6NpFpMD4oRGj8Pzp3+5lKv7uUIM55cz/2zWDtpqjeqs8To5fNwzR7oAFWIIdjA9qKVzZtQ3zo4n5YYvQ+LabIUYggWfPr//RaN7bBssIQrk2myFGAa7y7CRpeI+lZC+wF8Wb7CJIoYuNWgfrhF2aOcwBXGCh6Hjf9CC6IZAUYTUpY4wzChcmLl2pqe7a+xwPivKiHLn+Oh17DPj13GUHs4M42M2vE+Gv3SPVMaWzc6ws4+07uBexDtgCDvlBYy/waE1Vg9HZgusVZ6hMogkkmzhfiiRv2YIK8YweBRLjhAldtaTThBnfcYPw+bvTWfwNOyjBmxPDKIeHHyHtzgQPKj2Mehsug/NsRaaK51hq5EeQClDT7RnODCYcaT/Ak8ixSKj78eGj+k0mju59POwxftJMIZcrQkjxNJfc/qoMx+CGppp/B06zVVF+Fu8IwnihYAABu7N5pZTmCK/nXCdXK3w4UEv5cuJTszvtjwukW6wn37QnK/5JCZT9fPyGfIoDEUcv6CYzvDf8kmMHRfc+NKD++Uz5Kc6MqefYIws8/0ZBMxpanNvlM8QerI3voLgWRr0npvj7hP0adJZ7efNIThLEbfx1OLeKJ8ht9LDzPiK7yRkt6fHjZ8mo1OvJo80TbIsojs+TRNjq4VsB332l89wwWeaEd4EZ29IIEW0fRDqRHxsif3Qh/GPtFPIg43PN9P4j/bFEHl9GGGPe93iOCLVecS8VT09wwNDvhAN1WSDWsCxaR0ewLTfgoqS6lFTDwzBgNAf9/gKVVFbbT3QlIzV7cMTxeNjuu651ROCcqB5ol5h4RopcT4YDmC9JYpe88fiYcOgnqYjmN/UOCi9eBNBv4xn0n/9UIaQJLrnQl2PsbQTj2EvSs1kKi8Mn6BH2V945s+KfZ/Go24kcSLsZU5lzqQBuukc5gRmbfvxCM+hrzEfi45MMGofFZPeH5h80fQg1hsr48rOysvTTHzYQHRdPwxbIn+GsNejW+lDygUijG8XvGUeF35fNSSP1GEUF5ulFOBIV9j/8sJQRHKPw0jb87U0ONEUHBzcXhAtD2fSaj3odam0OyVoHp+vuMVAzt8imdRtJtkGJsPDjmt7cWqCR4W9RWY2mC52JCgbtxjDoIn/MtrhPj1/sadOA4u/qEoAyjDoYKNI0XRhrwyDYWZqnA3V3sAZBh/GKBKGZxUHfuOHE+Nly0zzv1gYqkfLAenMHqnxGyHtZoriQvWBsDEM1srpmealUXmOAbdWUtplYiwlK8NgLx5Ne2xNRz39C78MD4c4ZECTttFTO0Nx9aIodcg7Q/CBYlHPHIYL4eNHfauAolrQN4/jg52BJXfnMBS54Tbn6gVQz/sL7wPGhd3C9zCEaD/zGIpnQ81075745zerOq9O+8mvQXe8X74ZXbHZ+w4MhxDkmOpftWg43T2Omp3PVjkMew1G0yjJYt1DFnyCzwYN6+YyFIkNTPdL9hghcZxENClrDCGvVw/8gX8FT67IZwi3L4zH88mjNG9HhtbsnG9kuLM44yHRyxKZz2cYzMEvqcWx+O5+yg3Tr/TdhOHWEjUBL6flikUBQzgxorX6BV/dp5zxtc3c+k6GHUtGIZ+9xNyCXBgGLxcm2kYMl2npae4b6u8NGIqwibJjwj5ju4FQxBDOGqosY/AYXEL6DzOHM+96KOfhFA1tCv8+TqCQIYRbE8UR3LZFRm4IeKrKnsl5W/PwChnydhXlFLQd6pyi+XXANJVXnJi7tiSuQoaw1zCxm0JSBsmuyFX6MuDgk2y5Lh8A/Bph4MAQVDdpJb9yRcBym/hGEG5ucZuH74T2ZNFihjxelUFWtDgczBjGTQEKKAn5hIKoPX5RMnBhyKOqYBsJB4f1JuqNINIO4/aZIqyhhvVZFzMUj+nciCBI4jJX4RHC7xC3T7mFcNHJbt85MOQL/BwyHQn/DSu45ff9eJdjFaOe2OlzcrYdGPJWjkkmnZmIkyclnoUcQ8mRH0X751d76hCHA0Ou1pDdI0mly8T229I3RFNWgTOIqVC7r9OB4QScGbGsfaZOBae+HVtUy4+QFL4LHBgGaGi8UXCZ+GbYYxkzbbu8C8M303AgqEukHGzNuJHNcjrChaF5SYMYXo0y0TTupOUZAC4M9VoZYTr1swY5+n81exSvT3KGC8OHSG2O2opMlYffIZV3hzz92IWhSH4/zIe0sbXvWyWi8xJRiMjk9d6F4QdnGLN4uSlX2c5B72MNGa85YQcXhjyxOH7sl62IFoBf+8WT1s9wYciti6RUa9AFfJe3205uDHmOfuJ/h9Gw5QxzTmcXhty/Xa5F7wKXWibX7DRFFUPKB9QyyYk6ujAcOMj4Afew5D17F4ZcJm/H8gOIHH/xxOe3rtzvr5cFrouYVydMmbwiGHy255iZngAntf3K62IPFRTsuhjPnTZik97BPd5WR1T/pSFqoTfmNn2Mhy7YrTr6n/HOreEM9ai0Vop+HiZ6jJDLZQUPyiO4Yoreee3qV/APW0kb20u41xUvZeoX3KmPbIJPU+z6DKFL07blx2GemekLfBM0+rZ4MYvTXAaKbfXlCKpR5Y5DKfStOmpaI4redOLLUTsauSOK+nVdoBCxP9mu64TqAiRZpg5oOpP9TO/ctWXeZqwA+G1C6SLiUPPiEDqbz2faZ2wp9iaud+P1dn2DW4iwEN+16lDkMl4fM3XjiemKDzvPY6me3n2gs+AWIvcJN6nqGEwyUNYeEvWriFsk4lbp6/iKgie3x3C0yxhsKCeV0hgotpVUgd6cqe77dHq6aiOc6HFE29vc0qfl4X3dZok8HQ/TdLFk9sV2Qt+QeFmAs+fyUcZ2VRjIdRJpxx2Zjag2QjNEfxnoo5yOQh0x++PbofjRRtQVoi1AW/J9M9UEzabC7Kslx76IlU1dkYfBakcEvT0rvmhKX31ERy94wfRNBYTtcisI/doVP6Nk5s1W3BXe1k7bOe7TM57bha0QTyHgYKl0jWRRqt/1bYwdPPOtNdM0V8poqih3JPMSoNnLUzRhs31zs5Y/Ouz/jv06LEeZT2PR62/2cqJCGPswiOXrWAndnueR9M4AVaUuwPBNPJuLTtrayKdJZJZOuTUm4t8TNue73QaUkuxKzXIDM1ykUK+lS7Plx/L/wNoh8l16GMToyh5BdFv2X0x2oj5KTgbETSDy2kTq3hEDyDzFSmO5tNdQjgaR0ZJ7Z+8GeIHcRKIygVqJ2VUmHtwxSLSksS2kEJU7iOKFR3pVADEY9IqHLmoWGDXD4JGVmQQtVWYx3Z4r6GzD2TBo5lTCgC3Nvdbwd4BPKiTjWRRYIJGjKjIQixo59+AKQJl53uB1wpx+Q9HfnBw3Cc8iyxG7LwUXSq6oVPtldP45Xl6LCTFurx2xElt86KAzd6UCmWhobhfH2bE6LyvTjur1Bw/b1ynFU7wgCfxwZhTWJpXygDM8bjUKl9vm8y8vpnALt9x6wqlB8nIzDphI6hpyN7qykAuZsbxK1htJLyOWNzxWEwNJLT+VoUPx+SY9CVLmRvINkLaPoxmFrcYPxdtGrHeJqgqZYhizt65ycLSGYzWlMU4qGIopgFrOhaR0Nx70J63jNtx8CaniYQ2TWSWyLK/EZ6L60UiSUsZO98BjzftkrUZTcUymbnUFY+rXJfoVrNDCQyoIW97jDOV4wlziCj8Hf2PFsdZdjCo/UpFX1H8FvVGS4nM1oX83Fct0/o947741Ii0+ESc03d6XEpOPRXOXsTTK4vhkCbF4OapI9PMb0Tqc9Nv945/5aj3472n4/wLIHQFmdMho7gAAAABJRU5ErkJggg==;" vertex="1" parent="2v_L7LmZGW6_UPbGGz43-19">
            <mxGeometry width="39" height="39" as="geometry" />
          </mxCell>
        </UserObject>
        <UserObject label="Glue Data Catalog" id="-YTG2AytPrKZjc665ewB-17">
          <mxCell style="shape=image;html=1;verticalLabelPosition=bottom;verticalAlign=top;imageAspect=1;aspect=fixed;image=https://encrypted-tbn0.gstatic.com/images?q=tbn:ANd9GcQpHsQYDvROhS9WsZVGkqu-kldVH4f2nd2DKYBtedk6QgF0ajufkElg5w1PfySqVnkG3yY&amp;usqp=CAU;" vertex="1" parent="2v_L7LmZGW6_UPbGGz43-19">
            <mxGeometry y="330" width="39" height="39" as="geometry" />
          </mxCell>
        </UserObject>
        <mxCell id="-YTG2AytPrKZjc665ewB-11" style="edgeStyle=orthogonalEdgeStyle;orthogonalLoop=1;jettySize=auto;html=1;entryX=0.5;entryY=0;entryDx=0;entryDy=0;rounded=1;strokeColor=#766f6f;dashed=1;" edge="1" parent="2v_L7LmZGW6_UPbGGz43-19" source="-YTG2AytPrKZjc665ewB-12" target="-YTG2AytPrKZjc665ewB-17">
          <mxGeometry relative="1" as="geometry" />
        </mxCell>
        <UserObject label="Glue Crawler" id="-YTG2AytPrKZjc665ewB-29">
          <mxCell style="shape=image;html=1;verticalLabelPosition=bottom;verticalAlign=top;imageAspect=1;aspect=fixed;image=data:image/png,iVBORw0KGgoAAAANSUhEUgAAAOEAAADhCAMAAAAJbSJIAAAAk1BMVEX///+hZv+dXv/TvP+ZVf/Rt//+/f+iZ/+gZP+fYv+bWv+eYP+cXP+aWP/byP+eYf/Vv//69/+6kv/u5f/gz//q3//Jq//Nsf/n2v/28f+ocv+lbf/AnP/z7P/t4/+yhP/Gpv/Os//ezP+2jP/ZxP/Cn/+0h/+sef/8+f/k1v+ufP++mP/Vvv+5kP+qdf/o3P+VTf/M0e2vAAAOUElEQVR4nO1d53riOhC1HYosWxhCC22BBFJgd3Pf/+kuTaM2ssVNsEyuz698MCg6VpumcRAEQfct/IFozxfBBUtKfPfmJsjo05lgk/ruyq1A4taJ4fRnjuARdHAk2Ap/LsPo4czw56JmeP/QGBLWkBCBVOP+EKEMSTuQ8fsiFXWD+wN0XmPYkoWaitCdoVkzNIXuDDVDROjOUDNEhO4MNUNE6M5QM0SE7gw1Q0TozlAzRITuDDVDROjOUDNEhO4M/1+GitADF/rtpY9fwwPKMAwfJHQf4/OH8WP34d4AndcZRjJi/mkc3R945/93Pu8fiJrh/aNmeP/4vtOiakeL7bRAD02XE79q6oHlxP+K1lY1FQ/X2r6ieVdNTf9+26JmWDZqhojQVS36R80QEbqqRf+oGSJCV7XoHzVDROiqFv2jZogIXdWif9QMEaGrWvSPmiEidFWL/lEzRISuatE/aoaI0FUt+kfNEBG6qkX/qBmqQj/eI/yjvPoowx8UmbExvGfUDO8fNcP7R83wjB9/Wvz8E//na22lat6/Ot1O30Ww//S5yPm6qrbFOqFplFKybuXL9fcRPYCM3t36UxWGi1l6LtBB0nbuOI5YdpaL4ien/lSE4SSDDTkkLIfioyg2QxoDl/5UhOFUEDT6ImOtVNNJ8dVYRYYPqdzxMBpZ5CZMkYt3Dv2pBkO9DFBkkRtpqhb7VdyfSjBcqEMThtSyiRhPYlzcn0owHKiT1NpSL9Hk4pfi/lSCYcdgiI5NMNGrdsXL4v5UgqHzGOoWT/xa3J9KMOwb6/ADF5xp6zBZFfenEgyNnlOL3EhbiPiTqCLDpnYerixyk4YiR0KH/lSDYdCWB5HEVqV6rOw17NmhPxVhuIgERcI+7YIv0mjTrUt/KsIw6LczmHo5BINgC/spWzn1pyoMg+D1onynln2UA3wUHbf+VIfh6rJPptaen7G7MKSoTmr2pzoM+UkQNfPl+KZktyKrypD7jzLL/nFBi281rGcTGf9zrr33z/r0g8ow5Kob+Zsr1ufnhc3C0lEdhkPe9STXFdVxexAC1WHY4sqp2EIWm+1uRtrTl9EApiTfkLK5a7uVYQjmLW9ms6NpFpMD4oRGj8Pzp3+5lKv7uUIM55cz/2zWDtpqjeqs8To5fNwzR7oAFWIIdjA9qKVzZtQ3zo4n5YYvQ+LabIUYggWfPr//RaN7bBssIQrk2myFGAa7y7CRpeI+lZC+wF8Wb7CJIoYuNWgfrhF2aOcwBXGCh6Hjf9CC6IZAUYTUpY4wzChcmLl2pqe7a+xwPivKiHLn+Oh17DPj13GUHs4M42M2vE+Gv3SPVMaWzc6ws4+07uBexDtgCDvlBYy/waE1Vg9HZgusVZ6hMogkkmzhfiiRv2YIK8YweBRLjhAldtaTThBnfcYPw+bvTWfwNOyjBmxPDKIeHHyHtzgQPKj2Mehsug/NsRaaK51hq5EeQClDT7RnODCYcaT/Ak8ixSKj78eGj+k0mju59POwxftJMIZcrQkjxNJfc/qoMx+CGppp/B06zVVF+Fu8IwnihYAABu7N5pZTmCK/nXCdXK3w4UEv5cuJTszvtjwukW6wn37QnK/5JCZT9fPyGfIoDEUcv6CYzvDf8kmMHRfc+NKD++Uz5Kc6MqefYIws8/0ZBMxpanNvlM8QerI3voLgWRr0npvj7hP0adJZ7efNIThLEbfx1OLeKJ8ht9LDzPiK7yRkt6fHjZ8mo1OvJo80TbIsojs+TRNjq4VsB332l89wwWeaEd4EZ29IIEW0fRDqRHxsif3Qh/GPtFPIg43PN9P4j/bFEHl9GGGPe93iOCLVecS8VT09wwNDvhAN1WSDWsCxaR0ewLTfgoqS6lFTDwzBgNAf9/gKVVFbbT3QlIzV7cMTxeNjuu651ROCcqB5ol5h4RopcT4YDmC9JYpe88fiYcOgnqYjmN/UOCi9eBNBv4xn0n/9UIaQJLrnQl2PsbQTj2EvSs1kKi8Mn6BH2V945s+KfZ/Go24kcSLsZU5lzqQBuukc5gRmbfvxCM+hrzEfi45MMGofFZPeH5h80fQg1hsr48rOysvTTHzYQHRdPwxbIn+GsNejW+lDygUijG8XvGUeF35fNSSP1GEUF5ulFOBIV9j/8sJQRHKPw0jb87U0ONEUHBzcXhAtD2fSaj3odam0OyVoHp+vuMVAzt8imdRtJtkGJsPDjmt7cWqCR4W9RWY2mC52JCgbtxjDoIn/MtrhPj1/sadOA4u/qEoAyjDoYKNI0XRhrwyDYWZqnA3V3sAZBh/GKBKGZxUHfuOHE+Nly0zzv1gYqkfLAenMHqnxGyHtZoriQvWBsDEM1srpmealUXmOAbdWUtplYiwlK8NgLx5Ne2xNRz39C78MD4c4ZECTttFTO0Nx9aIodcg7Q/CBYlHPHIYL4eNHfauAolrQN4/jg52BJXfnMBS54Tbn6gVQz/sL7wPGhd3C9zCEaD/zGIpnQ81075745zerOq9O+8mvQXe8X74ZXbHZ+w4MhxDkmOpftWg43T2Omp3PVjkMew1G0yjJYt1DFnyCzwYN6+YyFIkNTPdL9hghcZxENClrDCGvVw/8gX8FT67IZwi3L4zH88mjNG9HhtbsnG9kuLM44yHRyxKZz2cYzMEvqcWx+O5+yg3Tr/TdhOHWEjUBL6flikUBQzgxorX6BV/dp5zxtc3c+k6GHUtGIZ+9xNyCXBgGLxcm2kYMl2npae4b6u8NGIqwibJjwj5ju4FQxBDOGqosY/AYXEL6DzOHM+96KOfhFA1tCv8+TqCQIYRbE8UR3LZFRm4IeKrKnsl5W/PwChnydhXlFLQd6pyi+XXANJVXnJi7tiSuQoaw1zCxm0JSBsmuyFX6MuDgk2y5Lh8A/Bph4MAQVDdpJb9yRcBym/hGEG5ucZuH74T2ZNFihjxelUFWtDgczBjGTQEKKAn5hIKoPX5RMnBhyKOqYBsJB4f1JuqNINIO4/aZIqyhhvVZFzMUj+nciCBI4jJX4RHC7xC3T7mFcNHJbt85MOQL/BwyHQn/DSu45ff9eJdjFaOe2OlzcrYdGPJWjkkmnZmIkyclnoUcQ8mRH0X751d76hCHA0Ou1pDdI0mly8T229I3RFNWgTOIqVC7r9OB4QScGbGsfaZOBae+HVtUy4+QFL4LHBgGaGi8UXCZ+GbYYxkzbbu8C8M303AgqEukHGzNuJHNcjrChaF5SYMYXo0y0TTupOUZAC4M9VoZYTr1swY5+n81exSvT3KGC8OHSG2O2opMlYffIZV3hzz92IWhSH4/zIe0sbXvWyWi8xJRiMjk9d6F4QdnGLN4uSlX2c5B72MNGa85YQcXhjyxOH7sl62IFoBf+8WT1s9wYciti6RUa9AFfJe3205uDHmOfuJ/h9Gw5QxzTmcXhty/Xa5F7wKXWibX7DRFFUPKB9QyyYk6ujAcOMj4Afew5D17F4ZcJm/H8gOIHH/xxOe3rtzvr5cFrouYVydMmbwiGHy255iZngAntf3K62IPFRTsuhjPnTZik97BPd5WR1T/pSFqoTfmNn2Mhy7YrTr6n/HOreEM9ai0Vop+HiZ6jJDLZQUPyiO4Yoreee3qV/APW0kb20u41xUvZeoX3KmPbIJPU+z6DKFL07blx2GemekLfBM0+rZ4MYvTXAaKbfXlCKpR5Y5DKfStOmpaI4redOLLUTsauSOK+nVdoBCxP9mu64TqAiRZpg5oOpP9TO/ctWXeZqwA+G1C6SLiUPPiEDqbz2faZ2wp9iaud+P1dn2DW4iwEN+16lDkMl4fM3XjiemKDzvPY6me3n2gs+AWIvcJN6nqGEwyUNYeEvWriFsk4lbp6/iKgie3x3C0yxhsKCeV0hgotpVUgd6cqe77dHq6aiOc6HFE29vc0qfl4X3dZok8HQ/TdLFk9sV2Qt+QeFmAs+fyUcZ2VRjIdRJpxx2Zjag2QjNEfxnoo5yOQh0x++PbofjRRtQVoi1AW/J9M9UEzabC7Kslx76IlU1dkYfBakcEvT0rvmhKX31ERy94wfRNBYTtcisI/doVP6Nk5s1W3BXe1k7bOe7TM57bha0QTyHgYKl0jWRRqt/1bYwdPPOtNdM0V8poqih3JPMSoNnLUzRhs31zs5Y/Ouz/jv06LEeZT2PR62/2cqJCGPswiOXrWAndnueR9M4AVaUuwPBNPJuLTtrayKdJZJZOuTUm4t8TNue73QaUkuxKzXIDM1ykUK+lS7Plx/L/wNoh8l16GMToyh5BdFv2X0x2oj5KTgbETSDy2kTq3hEDyDzFSmO5tNdQjgaR0ZJ7Z+8GeIHcRKIygVqJ2VUmHtwxSLSksS2kEJU7iOKFR3pVADEY9IqHLmoWGDXD4JGVmQQtVWYx3Z4r6GzD2TBo5lTCgC3Nvdbwd4BPKiTjWRRYIJGjKjIQixo59+AKQJl53uB1wpx+Q9HfnBw3Cc8iyxG7LwUXSq6oVPtldP45Xl6LCTFurx2xElt86KAzd6UCmWhobhfH2bE6LyvTjur1Bw/b1ynFU7wgCfxwZhTWJpXygDM8bjUKl9vm8y8vpnALt9x6wqlB8nIzDphI6hpyN7qykAuZsbxK1htJLyOWNzxWEwNJLT+VoUPx+SY9CVLmRvINkLaPoxmFrcYPxdtGrHeJqgqZYhizt65ycLSGYzWlMU4qGIopgFrOhaR0Nx70J63jNtx8CaniYQ2TWSWyLK/EZ6L60UiSUsZO98BjzftkrUZTcUymbnUFY+rXJfoVrNDCQyoIW97jDOV4wlziCj8Hf2PFsdZdjCo/UpFX1H8FvVGS4nM1oX83Fct0/o947741Ii0+ESc03d6XEpOPRXOXsTTK4vhkCbF4OapI9PMb0Tqc9Nv945/5aj3472n4/wLIHQFmdMho7gAAAABJRU5ErkJggg==;" vertex="1" parent="2v_L7LmZGW6_UPbGGz43-19">
            <mxGeometry y="117" width="39" height="39" as="geometry" />
          </mxCell>
        </UserObject>
        <UserObject label="Glue Crawler" id="-YTG2AytPrKZjc665ewB-31">
          <mxCell style="shape=image;html=1;verticalLabelPosition=bottom;verticalAlign=top;imageAspect=1;aspect=fixed;image=data:image/png,iVBORw0KGgoAAAANSUhEUgAAAOEAAADhCAMAAAAJbSJIAAAAk1BMVEX///+hZv+dXv/TvP+ZVf/Rt//+/f+iZ/+gZP+fYv+bWv+eYP+cXP+aWP/byP+eYf/Vv//69/+6kv/u5f/gz//q3//Jq//Nsf/n2v/28f+ocv+lbf/AnP/z7P/t4/+yhP/Gpv/Os//ezP+2jP/ZxP/Cn/+0h/+sef/8+f/k1v+ufP++mP/Vvv+5kP+qdf/o3P+VTf/M0e2vAAAOUElEQVR4nO1d53riOhC1HYosWxhCC22BBFJgd3Pf/+kuTaM2ssVNsEyuz698MCg6VpumcRAEQfct/IFozxfBBUtKfPfmJsjo05lgk/ruyq1A4taJ4fRnjuARdHAk2Ap/LsPo4czw56JmeP/QGBLWkBCBVOP+EKEMSTuQ8fsiFXWD+wN0XmPYkoWaitCdoVkzNIXuDDVDROjOUDNEhO4MNUNE6M5QM0SE7gw1Q0TozlAzRITuDDVDROjOUDNEhO4M/1+GitADF/rtpY9fwwPKMAwfJHQf4/OH8WP34d4AndcZRjJi/mkc3R945/93Pu8fiJrh/aNmeP/4vtOiakeL7bRAD02XE79q6oHlxP+K1lY1FQ/X2r6ieVdNTf9+26JmWDZqhojQVS36R80QEbqqRf+oGSJCV7XoHzVDROiqFv2jZogIXdWif9QMEaGrWvSPmiEidFWL/lEzRISuatE/aoaI0FUt+kfNEBG6qkX/qBmqQj/eI/yjvPoowx8UmbExvGfUDO8fNcP7R83wjB9/Wvz8E//na22lat6/Ot1O30Ww//S5yPm6qrbFOqFplFKybuXL9fcRPYCM3t36UxWGi1l6LtBB0nbuOI5YdpaL4ien/lSE4SSDDTkkLIfioyg2QxoDl/5UhOFUEDT6ImOtVNNJ8dVYRYYPqdzxMBpZ5CZMkYt3Dv2pBkO9DFBkkRtpqhb7VdyfSjBcqEMThtSyiRhPYlzcn0owHKiT1NpSL9Hk4pfi/lSCYcdgiI5NMNGrdsXL4v5UgqHzGOoWT/xa3J9KMOwb6/ADF5xp6zBZFfenEgyNnlOL3EhbiPiTqCLDpnYerixyk4YiR0KH/lSDYdCWB5HEVqV6rOw17NmhPxVhuIgERcI+7YIv0mjTrUt/KsIw6LczmHo5BINgC/spWzn1pyoMg+D1onynln2UA3wUHbf+VIfh6rJPptaen7G7MKSoTmr2pzoM+UkQNfPl+KZktyKrypD7jzLL/nFBi281rGcTGf9zrr33z/r0g8ow5Kob+Zsr1ufnhc3C0lEdhkPe9STXFdVxexAC1WHY4sqp2EIWm+1uRtrTl9EApiTfkLK5a7uVYQjmLW9ms6NpFpMD4oRGj8Pzp3+5lKv7uUIM55cz/2zWDtpqjeqs8To5fNwzR7oAFWIIdjA9qKVzZtQ3zo4n5YYvQ+LabIUYggWfPr//RaN7bBssIQrk2myFGAa7y7CRpeI+lZC+wF8Wb7CJIoYuNWgfrhF2aOcwBXGCh6Hjf9CC6IZAUYTUpY4wzChcmLl2pqe7a+xwPivKiHLn+Oh17DPj13GUHs4M42M2vE+Gv3SPVMaWzc6ws4+07uBexDtgCDvlBYy/waE1Vg9HZgusVZ6hMogkkmzhfiiRv2YIK8YweBRLjhAldtaTThBnfcYPw+bvTWfwNOyjBmxPDKIeHHyHtzgQPKj2Mehsug/NsRaaK51hq5EeQClDT7RnODCYcaT/Ak8ixSKj78eGj+k0mju59POwxftJMIZcrQkjxNJfc/qoMx+CGppp/B06zVVF+Fu8IwnihYAABu7N5pZTmCK/nXCdXK3w4UEv5cuJTszvtjwukW6wn37QnK/5JCZT9fPyGfIoDEUcv6CYzvDf8kmMHRfc+NKD++Uz5Kc6MqefYIws8/0ZBMxpanNvlM8QerI3voLgWRr0npvj7hP0adJZ7efNIThLEbfx1OLeKJ8ht9LDzPiK7yRkt6fHjZ8mo1OvJo80TbIsojs+TRNjq4VsB332l89wwWeaEd4EZ29IIEW0fRDqRHxsif3Qh/GPtFPIg43PN9P4j/bFEHl9GGGPe93iOCLVecS8VT09wwNDvhAN1WSDWsCxaR0ewLTfgoqS6lFTDwzBgNAf9/gKVVFbbT3QlIzV7cMTxeNjuu651ROCcqB5ol5h4RopcT4YDmC9JYpe88fiYcOgnqYjmN/UOCi9eBNBv4xn0n/9UIaQJLrnQl2PsbQTj2EvSs1kKi8Mn6BH2V945s+KfZ/Go24kcSLsZU5lzqQBuukc5gRmbfvxCM+hrzEfi45MMGofFZPeH5h80fQg1hsr48rOysvTTHzYQHRdPwxbIn+GsNejW+lDygUijG8XvGUeF35fNSSP1GEUF5ulFOBIV9j/8sJQRHKPw0jb87U0ONEUHBzcXhAtD2fSaj3odam0OyVoHp+vuMVAzt8imdRtJtkGJsPDjmt7cWqCR4W9RWY2mC52JCgbtxjDoIn/MtrhPj1/sadOA4u/qEoAyjDoYKNI0XRhrwyDYWZqnA3V3sAZBh/GKBKGZxUHfuOHE+Nly0zzv1gYqkfLAenMHqnxGyHtZoriQvWBsDEM1srpmealUXmOAbdWUtplYiwlK8NgLx5Ne2xNRz39C78MD4c4ZECTttFTO0Nx9aIodcg7Q/CBYlHPHIYL4eNHfauAolrQN4/jg52BJXfnMBS54Tbn6gVQz/sL7wPGhd3C9zCEaD/zGIpnQ81075745zerOq9O+8mvQXe8X74ZXbHZ+w4MhxDkmOpftWg43T2Omp3PVjkMew1G0yjJYt1DFnyCzwYN6+YyFIkNTPdL9hghcZxENClrDCGvVw/8gX8FT67IZwi3L4zH88mjNG9HhtbsnG9kuLM44yHRyxKZz2cYzMEvqcWx+O5+yg3Tr/TdhOHWEjUBL6flikUBQzgxorX6BV/dp5zxtc3c+k6GHUtGIZ+9xNyCXBgGLxcm2kYMl2npae4b6u8NGIqwibJjwj5ju4FQxBDOGqosY/AYXEL6DzOHM+96KOfhFA1tCv8+TqCQIYRbE8UR3LZFRm4IeKrKnsl5W/PwChnydhXlFLQd6pyi+XXANJVXnJi7tiSuQoaw1zCxm0JSBsmuyFX6MuDgk2y5Lh8A/Bph4MAQVDdpJb9yRcBym/hGEG5ucZuH74T2ZNFihjxelUFWtDgczBjGTQEKKAn5hIKoPX5RMnBhyKOqYBsJB4f1JuqNINIO4/aZIqyhhvVZFzMUj+nciCBI4jJX4RHC7xC3T7mFcNHJbt85MOQL/BwyHQn/DSu45ff9eJdjFaOe2OlzcrYdGPJWjkkmnZmIkyclnoUcQ8mRH0X751d76hCHA0Ou1pDdI0mly8T229I3RFNWgTOIqVC7r9OB4QScGbGsfaZOBae+HVtUy4+QFL4LHBgGaGi8UXCZ+GbYYxkzbbu8C8M303AgqEukHGzNuJHNcjrChaF5SYMYXo0y0TTupOUZAC4M9VoZYTr1swY5+n81exSvT3KGC8OHSG2O2opMlYffIZV3hzz92IWhSH4/zIe0sbXvWyWi8xJRiMjk9d6F4QdnGLN4uSlX2c5B72MNGa85YQcXhjyxOH7sl62IFoBf+8WT1s9wYciti6RUa9AFfJe3205uDHmOfuJ/h9Gw5QxzTmcXhty/Xa5F7wKXWibX7DRFFUPKB9QyyYk6ujAcOMj4Afew5D17F4ZcJm/H8gOIHH/xxOe3rtzvr5cFrouYVydMmbwiGHy255iZngAntf3K62IPFRTsuhjPnTZik97BPd5WR1T/pSFqoTfmNn2Mhy7YrTr6n/HOreEM9ai0Vop+HiZ6jJDLZQUPyiO4Yoreee3qV/APW0kb20u41xUvZeoX3KmPbIJPU+z6DKFL07blx2GemekLfBM0+rZ4MYvTXAaKbfXlCKpR5Y5DKfStOmpaI4redOLLUTsauSOK+nVdoBCxP9mu64TqAiRZpg5oOpP9TO/ctWXeZqwA+G1C6SLiUPPiEDqbz2faZ2wp9iaud+P1dn2DW4iwEN+16lDkMl4fM3XjiemKDzvPY6me3n2gs+AWIvcJN6nqGEwyUNYeEvWriFsk4lbp6/iKgie3x3C0yxhsKCeV0hgotpVUgd6cqe77dHq6aiOc6HFE29vc0qfl4X3dZok8HQ/TdLFk9sV2Qt+QeFmAs+fyUcZ2VRjIdRJpxx2Zjag2QjNEfxnoo5yOQh0x++PbofjRRtQVoi1AW/J9M9UEzabC7Kslx76IlU1dkYfBakcEvT0rvmhKX31ERy94wfRNBYTtcisI/doVP6Nk5s1W3BXe1k7bOe7TM57bha0QTyHgYKl0jWRRqt/1bYwdPPOtNdM0V8poqih3JPMSoNnLUzRhs31zs5Y/Ouz/jv06LEeZT2PR62/2cqJCGPswiOXrWAndnueR9M4AVaUuwPBNPJuLTtrayKdJZJZOuTUm4t8TNue73QaUkuxKzXIDM1ykUK+lS7Plx/L/wNoh8l16GMToyh5BdFv2X0x2oj5KTgbETSDy2kTq3hEDyDzFSmO5tNdQjgaR0ZJ7Z+8GeIHcRKIygVqJ2VUmHtwxSLSksS2kEJU7iOKFR3pVADEY9IqHLmoWGDXD4JGVmQQtVWYx3Z4r6GzD2TBo5lTCgC3Nvdbwd4BPKiTjWRRYIJGjKjIQixo59+AKQJl53uB1wpx+Q9HfnBw3Cc8iyxG7LwUXSq6oVPtldP45Xl6LCTFurx2xElt86KAzd6UCmWhobhfH2bE6LyvTjur1Bw/b1ynFU7wgCfxwZhTWJpXygDM8bjUKl9vm8y8vpnALt9x6wqlB8nIzDphI6hpyN7qykAuZsbxK1htJLyOWNzxWEwNJLT+VoUPx+SY9CVLmRvINkLaPoxmFrcYPxdtGrHeJqgqZYhizt65ycLSGYzWlMU4qGIopgFrOhaR0Nx70J63jNtx8CaniYQ2TWSWyLK/EZ6L60UiSUsZO98BjzftkrUZTcUymbnUFY+rXJfoVrNDCQyoIW97jDOV4wlziCj8Hf2PFsdZdjCo/UpFX1H8FvVGS4nM1oX83Fct0/o947741Ii0+ESc03d6XEpOPRXOXsTTK4vhkCbF4OapI9PMb0Tqc9Nv945/5aj3472n4/wLIHQFmdMho7gAAAABJRU5ErkJggg==;" vertex="1" parent="2v_L7LmZGW6_UPbGGz43-19">
            <mxGeometry y="233" width="39" height="39" as="geometry" />
          </mxCell>
        </UserObject>
        <mxCell id="2v_L7LmZGW6_UPbGGz43-24" style="edgeStyle=orthogonalEdgeStyle;rounded=1;orthogonalLoop=1;jettySize=auto;html=1;fontFamily=Helvetica;fontSize=11;fontColor=default;strokeColor=#766f6f;" edge="1" parent="1" source="-YTG2AytPrKZjc665ewB-19" target="-YTG2AytPrKZjc665ewB-38">
          <mxGeometry relative="1" as="geometry">
            <Array as="points">
              <mxPoint x="1061" y="375.5" />
            </Array>
          </mxGeometry>
        </mxCell>
        <mxCell id="2v_L7LmZGW6_UPbGGz43-25" style="edgeStyle=orthogonalEdgeStyle;rounded=1;orthogonalLoop=1;jettySize=auto;html=1;fontFamily=Helvetica;fontSize=11;fontColor=default;strokeColor=#766f6f;startArrow=classic;startFill=1;" edge="1" parent="1" source="-YTG2AytPrKZjc665ewB-38" target="-YTG2AytPrKZjc665ewB-22">
          <mxGeometry relative="1" as="geometry" />
        </mxCell>
        <mxCell id="2v_L7LmZGW6_UPbGGz43-27" style="edgeStyle=orthogonalEdgeStyle;rounded=1;orthogonalLoop=1;jettySize=auto;html=1;entryX=1;entryY=0.5;entryDx=0;entryDy=0;fontFamily=Helvetica;fontSize=11;fontColor=default;strokeColor=#766f6f;" edge="1" parent="1" source="-YTG2AytPrKZjc665ewB-38" target="-YTG2AytPrKZjc665ewB-26">
          <mxGeometry relative="1" as="geometry">
            <Array as="points">
              <mxPoint x="1058" y="601.5" />
            </Array>
          </mxGeometry>
        </mxCell>
        <mxCell id="2v_L7LmZGW6_UPbGGz43-32" style="edgeStyle=orthogonalEdgeStyle;rounded=1;orthogonalLoop=1;jettySize=auto;html=1;fontFamily=Helvetica;fontSize=11;fontColor=default;strokeColor=#766f6f;entryX=0.999;entryY=0.575;entryDx=0;entryDy=0;entryPerimeter=0;dashed=1;" edge="1" parent="1" source="-YTG2AytPrKZjc665ewB-36" target="wI26p4mS2MI4SApwKy1P-6">
          <mxGeometry relative="1" as="geometry" />
        </mxCell>
        <mxCell id="2v_L7LmZGW6_UPbGGz43-35" style="edgeStyle=orthogonalEdgeStyle;rounded=1;orthogonalLoop=1;jettySize=auto;html=1;fontFamily=Helvetica;fontSize=11;fontColor=default;strokeColor=#766f6f;dashed=1;" edge="1" parent="1" source="-YTG2AytPrKZjc665ewB-36" target="wI26p4mS2MI4SApwKy1P-2">
          <mxGeometry relative="1" as="geometry" />
        </mxCell>
        <UserObject label="Apache Airflow" id="-YTG2AytPrKZjc665ewB-36">
          <mxCell style="shape=image;html=1;verticalLabelPosition=bottom;verticalAlign=top;imageAspect=1;aspect=fixed;image=data:image/png,iVBORw0KGgoAAAANSUhEUgAAAO0AAADUCAMAAABH5lTYAAAB0VBMVEX////u7u7t7e0Ax9QArUbkOSEBfO739/cR4e7/dVcE1lkMtv/29vb6+vr8/Pzz8/NKSEgMuf8AqkUAeO4Aqz8AvP8Adu0AqjkAcu3jJAAAydbkNRv/c1QAtP8AdO728O/tKwDzXEEAdfYS5PYE1FwApzHkLAn1wbz52tfrd2v75OL/bUz3ZUnnNhgEivIO3OkE2VEDsaIDxVHmSjfpn5fX6utFztlm09yE3uX/akfB5ejz/f5OoNrpRSzigmv38e30eV0GkvQHl/YJo/lMQkEDqLEDtJwQ3eMDobsJw5bY4u4LyKYMz7oCvU6LufWd2rCryO5Jum2G0J3zsKrpr6vs4uHoX0/oa13nh37olY30vLb4zcnnWEeW4uiv6O3pZ1j+tqj5pJT/nIj+j3iEhq7OS0ayZnntemDHUlV2rrB/ibWrmpGknphilsnOi3tatbpeyP++koXAWmOL1/+i3f+RfJ/A6f/Xh3WJp6a2YnJEird0PzRnQ0DEX0w0RUedW05NQTIrZKspiZEcb85lpPI9b0pMPkdDYmXK3/s4fE2dwvYCmMkDxX1x6PEClcwEx3kBjdcO1cy+88zS9t7F48862nFb4Id55px2x49dv3uw2LxU/jCPAAASGklEQVR4nO2di3fUxhXGpdXi9dqWhNfG6+cKDH7HhhaWh4Wz2ISQOClgg8PbNGneTZOmbUiTvlNKXQIlLS4B/7WdGWlXI2lmNC9tKOWenp4vPtjen++9cz9JI8kwYJQKpmkW+KTNkA5dOnzSpkuDIUt80nhB+4L2uaKFwSdtPhkSKMgQhkuW+KRRQtED4/mXAXlP9EdISTMhXRXp0qWpInsSskCRJqzqEDGSJo80XT7pikqTT/YUeGQB/+oL2ueXlta3puva0ccOlrRnvG9bXPS+RUGYNc5FGJcuXZq6fn0axAYIJ/glIILf8UxOINtfJHw1w13MDE3CGMJiftfS4RtvXZ65cvXIpanpWc9wILgbIprPhrvw6pZ1VNhLLY3sSscIjPn55l9h/vCtmasXAbiDMm42M/4D0kJYy/JFaaeGCLRpeoAOsCeXbl05MjXNMpHtoQ1gM2lTfcuHi2FD6sOXr16bdXyQ5h+mb0NYSEvuW6rR8oVwm9CI+crFac93bLvdxrAUwlq+uHN0JXADZpDn+RtXpzZcH/2wtjlHfziklXGO/nVJXIQMsnzj6jT6VG1yF4UmrFWQ8lLXh0grsxDxzDXPd9tCG8Faks5RERfE/NDQrUsbbv60GKzliTrHUM4q46IUX54Kfm6OfYvBWl6Gc0zN21C605PquDDD81c3/PzmrW0cxWAt6fNSro7swpgcmpkO1mj9tKYdg5WnLWgpZhTzQ29dz4k2Djuscs5xdl4T7q6RoVvTedDGYbNp084Rk7MjunAB74xnCDhHDhNpeglYRCvoHDHpbOzShgvq+Yhd0ukcS0lY66gjfc4RLfMbxANAyRi6MWtonEDHkrDWUeoEYruLpix5GrMLyvmiNnfhpWGtY1R3wUfbY3iHNeLuGrrs6KElwWqgNbyleY2480sbdPfMT0uEZdBy9W0gD+vEHRmadpX7lgwLaNnO0YyGLFW6hRt6ca+H49SM5q1pc8nQQBnHibDW8fAfRPPWFL+iaTpacXcBXCV34VBgrZuart/emNSMq0Dr0WCtTV1Xq9/SiQuK2ZWmpcNm0zKdIy5vacWdv+7KOUcWLKKlO0fk5HpcO5IlmrSdy1pxl6Z8YOvs5q9AsoRLlyh77Jt0WGvRtqN/i0lO54hdrTZLM1p798SU1ATaZMBai6aac4zJywqnIlOx78Q1cXfhMWGtutbrtzM6ccsnpnxB2gxYzbRacfeVT1zzhWizYBm0on0bmL0rGnHL5RM/dUXsYhasRbCLKedoCsgefbgjL0FcMGvMwA0aWTITdtiI7yiIZEjL7S5aG+D04R4uI1xOd+EsZsHCi9Xad/7pwy0HuFy0XjZsLrTGVU24I6MBrstBywMLD4Fy2NWpC3dfGeG+7bMtM7SLPLAsWhtGCW0XEZXGET24S4i2PPeOD8xp9CuS0nZLXLDWTQf8W+zbIik5gQLpX9SCG9KW597OmED1bFIYm15O+xy14I6Um7jvMO0iJyywyXnt/NOBGyxTYTFTab36cDYoinputFpwXypHuC6FljuzcB+CZueISdm9KFhuI9ry3M/A5yPZRX5Yi2QXeZ2jQ5c2VDI7jei0AJdoF33eMg7MhW7niEll3H3lBG5y3jo+f2YDWv3uoiVVcWO0ENeM05oCmQ3MRa53yKhsrErRot6N51YEFp5NzpdWcadRgrY8d6qA04rBwjOOeThH3EQq4SZpy6OnvJ6m7+txxWCtesIu6nKOuImclseNrclNXLs1gQRhrTpjAqm6i5ZUwE3TlkfLdk/wc1P7DLLCa43QPO8ZkcaNnGO8mNHPFYY92h5aY1Zy2xyRFuBumKm9QRxxjEWrqW+RnB0ZGdm7dxL8TwybBAuLeUMC1rrpMfrWAdG0i1CHxlBUIhPpzk7Ov3uyu/vkF+/tFbjSu0SmBbjkS+/sWEQY6JOVEFwgA1AUuu6/NTbGeru7u3t795x8n5+XRlse/UB0PQZRj7oy37uNTX9PdxiA98O9nLSpcduKuY/Ecdt3b3XvWHd3xPsxX3oJ47aV3J8L0x512kRb6O2OxZ7u97j8M3FJlqU9xrq/XJNzhNJMwML+fZ+nmqmw5dFPhGk37aRdzME5ArlnLEkL0vtFNi51kZLq23opNXYwqc1dkGAB7seZuPRFqjxqCdO2527jXxJhAe4vMnBZi9Sn4otUW2jJmeXBJfvGoJA/E6Y9LndvtVDfMmAzceltO/qy+LTdZD8TQdgjEqRBK2Oe3mV4C/HUWnUX2UXMOeIyGEOK85YNy16Z6W07+rk47LCX+3NqsmABLmPuUmFPiS/IcK9uvrSNbFjgMz6kmUhq28rUMby8lystFywI2m0YtLadE7dRFrzgxaYNlhvkrsjSZkpe2N6T5FqmzR+JUWvBszRuuEoFdjEpVSfQr/lgQeu+S8SlFLLM8LGCE+c5PpWHGxbg/oq0G5RcyFIrlBUcyefmpRoCsCAItwPSTsDJoFrw3sz8aAVhewmeiljIspkNrnfl5BwFYeHUTdUyqZBHP5CEtRbJzYrJaPU1xaRIzzYjdXsccYGSQwWBrb4mUQZjSGbe/kYcNlXLhEKe+3RYMrPWcY84ZHW4CwlYuC7HLBXBI8+Jn4lqRd3MibbRgu3FI5s3ntxUFcucUm3GMP/zHMVoA1iAN3b69Mry8gKM5eWV06fHxrqZzPGjoeQaJb8+wbjJQZvpHAkSwkLShY6+vr6OKPrgfy6snB6jp7kXu7E1OWznJA7xsPApdlHVOd4e6x1b6YiBdsSgATIlyfhCFV+jRkcVqtjKujFT3jne7h5b7qChtpA7FmCO07XcOvaLr1FzX6pUsZW4dUKbl2rcHlvOQm3mGKQ4CYwdDMUS+1vpwRMEvEitn7Zxe4WPtZniJPCer+aTa9To3KeKiU1uXNXkHBu3F0RgCcCt5EZFfOojxcSixyAwNzemnCPPmmzcFmUNgBdOd/cmknu4ldhPlFlBaukLMb4m8w3ZptwakIFFCV6OErw3Gj+jc58rFzGIY4whK+0uVmVhwwQHvHu+mpyfXwpYv/xMQ2LZF+QlaRtKsB1hBwPar3+3+/d/gKwvy5xXJMRx1iVq2dyqsQa8y2N7vv7z7t27//in0Q/UF6cwTBainHNsCK/GZOBlCAtCG6u16LGWJjnneE6xjpvxl1cQ7Cvf6II9njF2MMntLrYG9cBqpx029D8b29fE2lH7a0h7RhOtnwPtHS1N21HrOHPgb3ch7N87D2rBXSQhqjnHkp46rtXOdB3q6vrH3bt3vznY2amD92Z2s2KSb022dbD21V47AFi7un5cqfS/vr+zUwPv8eyFWNw53qups45/+x/E2tVVBFHtbMZBFViOISvsLnz14TP+3f2QFaQW0obJVUow/U5bFVrlUVvrePVQExaltljsP9uJhRQw484fBVrl1I5/e6DF2nWggmjx5CJeUeDhB3yIZOdIvwaimNrawv2ItavrJ0Fui9VYcoWBDz6wGddAKFdGsieQ6tHA+GuHcNgwtaCUE8kVAj7Y+YD6Lgol59hQWpAHOmKJBalt0hYn/pWmDXo4g3gYzOoHTEsh76UaSon9Z1cctqvYiv77hORGOaYgDx+EvuQBG1GeVsVGjf8owRqMn2Zy36TShsiAOYIGGpGGsDK0mX3bkHfIfR0Pk7CtNQpFhU1LD/TJJPoWbsluekRMOi3pSi/Ite8OpGAPVHDa5BTijXA/OfyQZOm0pI3JYBM+82TUBVna8W9TrPFChrWcmkJ8mUUfMof38TWWZWHPEGC7ivHofyiRXCM/2lXJ8TP+Kgk2Xsiwlt8QxjXyo23ckytkMmx8jZKrZUeFNvCIcHkmbraWLOTx14mwyUKWqGU/cIMwWPuuyTJrAvlSw5aS2XQhC6/LPvaeQf3O8YJM26Y9BbWQi3QDSYTN9318Mtai9hoFllDIqJi5W9fP+e2DEpnt+44GSypkkdaF51LzeftgIKU88gEKLLmQ+VvXTzSrpHOk3olYkjiOH79PSy2lkGHrvsmBW/eQBWTclJgpgzFEm7eNFWFYetPSCjlYqTJx/dSQ1ewuTFPCWlBhkx45XsxnM3D9NKJu2i3h+VOjTFpW2wZLFXthrhMQNdNK2MYFOiy9bRFthYVbJyFKOkfsCRBG5BwBrfC0rdF8Bbtts3CxpzrY2AMeuGTsCRDMCbQgmtoadfqw2xbhFmm4ix5x7Oh1jiVhk0w3FlltG+CSV+bFtrzJuSS8SA3Qx09G2wZRJc3dxfa8t9oWXqRYbctDW5xIu6pNQyMto2+ddi5Szew+TAzeTXqz6nWOjvAi1ceo5KxFKoz+6hsxWHW7yOkcXYmjPUlvEUtv5c39YX73b7KGrF53sSp+AFQjnVUVpIW8b5zt3L9//9n7a9ijHXOmlTiTXFv9t9iRPI23Wnl4/2G1v3+tbbTnhCt5cMswaLh8bRtFfz/6/7WCftpoWcek+JK8Bb/tERlXlLYJXSm4lFcXlBKS8qhZTDImUEN0SR7casDv84i4fAOIiOvom0B0d9EQXKRAGaM/o0vMrjQtxO3J30sJLsmwjENaEi7nuCXjmvnTirnk8S0joiXgKtDC3tVES+1bsUuZgxfQHwn+BHTz9SOdtODoqE58Prg+5+iInG8cvGC3/Bn6CT3J7CrRQlynpM85tv4IkRQYQCCzwXEE/D47+AkJXDVagOvT3vYLo8Qnm7QEd8F/BxuADe64DmkD+UgnLcRl2Cp1L8U9bmHPEmgNXyctLGYvR1re1A7eM8i0ho+dpZKftxHvtpebc+zhHLeD5xAi+jYnIXFcddpiddtNOcdsu8jjHHnH7eC5RmvspB/bg+FqoC1WH+XlHPloQWZbloL0lMcIVwNssTjxCCtDjV6Kz1zAMmbSRrgCR/OMqG57udDymAvUs2xawwnvJlBelHFcWVpa3zY4juVrd4jNmpQBroZFGcXEjifft6VS9ApWXHJYqdodO/VtJGkHuHpgIa7D+m0sicCJzjHTSoHMRt9mJ50j9treMLt6Ghfh6neOWVYKwKYe7ejQJMTV1LgI19PtpTJgB+4QHmRJpTUeH9JXyiFuG2khrAgtxNVWygD3vKfoHAsx6TPbdmAFwZgZiJh0Hh/StSoHuKGJRDDYneRMSb0thvlEgIEV18wYO2n5+JDG5AJcnc6RtS8ZZDbDUsRk87XUjw9pTC7AtblMJJeXYtjkvmUORAKt8VjfslwMelcXLX3zKoSVozW+r2qkLU6s85hIHufYoNL2LYg0a0J+P6EV94mnxzk6NNq+BbMk5dqQdJ5oxa0+MfQ4R8qei76FHjNhFzFJdo4xua4bV4tzJNP2LThO0lJgkjVvm1I3buYjK3m8FPGAr2/BZ75DhofWOK8fV52WmFuf/cYcLlpjRy/uU1edlnh465MQGbQOURrbwXV3jbi8tLQJRKJdbUiNHUy6gfTXdA7e6lNV50ii9Ru4/ZBxF5E8P6ExvdWnjDORPF4qvce+b5X9xhwxWqOuM73VNVeNNnlHG4DVSmuUdjR2b3WNj5bWt4kTNQOr1F6U6FskvcJ6VRsv2lgVckk4xzhtbcuWt4tU6bjr2tq3f61kyzvHBGyDbhfJkuYc49IorPdr6t/+NQXnGIdl2UVM8rkLXJpe4XxFT4LRtjlJdxGD5X37oDgtkJ63/aSqo4PR1hs52sg4ws2LedIiufNUAzDE5aJN9W0Nh8X/gda+xaSvARjiMvuWNoGaV+YHLzRaX9U7gQhye70yoUTcX/Sl3j442IKNWwpt7oLiOeo7Tyogx7LIcB+ZuJcKaQcvsN4hkwOta7qeV99eX6tOyCEDXFeYtjAYwradtinrO+tPQZaF8xzgUmjJfRvQor1BJv7VHPs2fQXa88zC9s75J2tFkGgAzUvdv23S+pZitGAlA9gc7KKYhBsuHdvc3gGZXqtUJyaCbDPB+yu0y9kInDSBBgYG7zVSXzXym0ApmdrR6LluYXt7+/x5AL5WqYCMB/AIPwpQy8LOcfXcBSP9VSMvd9GUNl0GF+sCe+15rllwfR/A7+zsAP71JyCegr8C+DusbcvcMyL+3ur8aXHwQJqu67nNvwGIdr23us20CtfmSR1Klj9c3zIk77UCpPnfRdHGCSQitT8JPC1zcxep+yXacbfxC9r/cVq+Zm3TEZ9a33K0sLCh63kWJednR+D/PxMohGkV+HPtLv4LKCjG4EVWUAMAAAAASUVORK5CYII=;" vertex="1" parent="1">
            <mxGeometry x="683" y="42" width="68" height="61" as="geometry" />
          </mxCell>
        </UserObject>
        <mxCell id="2v_L7LmZGW6_UPbGGz43-12" value="Processing Layer" style="text;html=1;strokeColor=none;fillColor=#e1d5e7;align=center;verticalAlign=middle;whiteSpace=wrap;rounded=0;fontSize=12;fontFamily=Helvetica;" vertex="1" parent="1">
          <mxGeometry x="983" y="686" width="148" height="30" as="geometry" />
        </mxCell>
        <mxCell id="2v_L7LmZGW6_UPbGGz43-22" style="edgeStyle=orthogonalEdgeStyle;rounded=1;orthogonalLoop=1;jettySize=auto;html=1;fontFamily=Helvetica;fontSize=11;fontColor=default;strokeColor=#766f6f;dashed=1;entryX=1;entryY=0;entryDx=0;entryDy=0;" edge="1" parent="1" source="-YTG2AytPrKZjc665ewB-29" target="2v_L7LmZGW6_UPbGGz43-17">
          <mxGeometry relative="1" as="geometry">
            <mxPoint x="772.184975760324" y="432.5" as="targetPoint" />
          </mxGeometry>
        </mxCell>
        <mxCell id="wI26p4mS2MI4SApwKy1P-2" value="" style="rounded=0;whiteSpace=wrap;html=1;direction=north;fillColor=#e1d5e7;strokeColor=none;gradientColor=none;verticalAlign=top;opacity=50;" vertex="1" parent="1">
          <mxGeometry x="309" y="146" width="150" height="570" as="geometry" />
        </mxCell>
        <UserObject label="Lambda" id="2v_L7LmZGW6_UPbGGz43-7">
          <mxCell style="shape=image;html=1;verticalLabelPosition=bottom;verticalAlign=top;imageAspect=1;aspect=fixed;image=https://upload.wikimedia.org/wikipedia/commons/thumb/5/5c/Amazon_Lambda_architecture_logo.svg/1200px-Amazon_Lambda_architecture_logo.svg.png;" vertex="1" parent="1">
            <mxGeometry x="360" y="406" width="62" height="62" as="geometry" />
          </mxCell>
        </UserObject>
        <mxCell id="2v_L7LmZGW6_UPbGGz43-9" value="Ingestion Layer" style="text;html=1;strokeColor=none;fillColor=#e1d5e7;align=center;verticalAlign=middle;whiteSpace=wrap;rounded=0;fontSize=12;fontFamily=Helvetica;" vertex="1" parent="1">
          <mxGeometry x="310" y="686" width="148" height="30" as="geometry" />
        </mxCell>
        <mxCell id="wI26p4mS2MI4SApwKy1P-5" value="" style="rounded=0;whiteSpace=wrap;html=1;direction=north;fillColor=#e1d5e7;strokeColor=none;gradientColor=none;verticalAlign=top;opacity=50;" vertex="1" parent="1">
          <mxGeometry x="1207" y="146" width="150" height="570" as="geometry" />
        </mxCell>
        <mxCell id="2v_L7LmZGW6_UPbGGz43-13" value="Consumption Layer" style="text;html=1;strokeColor=none;fillColor=#e1d5e7;align=center;verticalAlign=middle;whiteSpace=wrap;rounded=0;fontSize=12;fontFamily=Helvetica;" vertex="1" parent="1">
          <mxGeometry x="1208" y="686" width="148" height="30" as="geometry" />
        </mxCell>
        <mxCell id="9_r5o2U3qwfS2CKxBN6k-2" value="" style="group" vertex="1" connectable="0" parent="1">
          <mxGeometry x="1026" y="238" width="62" height="277" as="geometry" />
        </mxCell>
        <mxCell id="9_r5o2U3qwfS2CKxBN6k-3" style="edgeStyle=orthogonalEdgeStyle;rounded=1;orthogonalLoop=1;jettySize=auto;html=1;entryX=1;entryY=0.5;entryDx=0;entryDy=0;fontFamily=Helvetica;fontSize=11;fontColor=default;strokeColor=#766f6f;dashed=1;" edge="1" parent="9_r5o2U3qwfS2CKxBN6k-2" source="-YTG2AytPrKZjc665ewB-14" target="-YTG2AytPrKZjc665ewB-38">
          <mxGeometry relative="1" as="geometry">
            <Array as="points">
              <mxPoint x="82" y="31" />
              <mxPoint x="82" y="247" />
            </Array>
          </mxGeometry>
        </mxCell>
        <UserObject label="EMR" id="-YTG2AytPrKZjc665ewB-14">
          <mxCell style="shape=image;html=1;verticalLabelPosition=bottom;verticalAlign=top;imageAspect=1;aspect=fixed;image=https://amazonemr.gallerycdn.vsassets.io/extensions/amazonemr/emr-tools/0.6.0/1679696975061/Microsoft.VisualStudio.Services.Icons.Default;" vertex="1" parent="9_r5o2U3qwfS2CKxBN6k-2">
            <mxGeometry width="62" height="62" as="geometry" />
          </mxCell>
        </UserObject>
        <UserObject label="Apache Spark" id="-YTG2AytPrKZjc665ewB-38">
          <mxCell style="shape=image;html=1;verticalLabelPosition=bottom;verticalAlign=top;imageAspect=1;aspect=fixed;image=https://w7.pngwing.com/pngs/1/687/png-transparent-apache-spark-apache-http-server-scala-apache-software-foundation-data-processing-others-miscellaneous-text-orange.png;" vertex="1" parent="9_r5o2U3qwfS2CKxBN6k-2">
            <mxGeometry y="216" width="62" height="61" as="geometry" />
          </mxCell>
        </UserObject>
        <UserObject label="Athena" id="-YTG2AytPrKZjc665ewB-15">
          <mxCell style="shape=image;html=1;verticalLabelPosition=bottom;verticalAlign=top;imageAspect=1;aspect=fixed;image=https://seeklogo.com/images/A/aws-athena-logo-ED06CEA8A8-seeklogo.com.png;" vertex="1" parent="1">
            <mxGeometry x="1251.5" y="400.5" width="61" height="61" as="geometry" />
          </mxCell>
        </UserObject>
      </root>
    </mxGraphModel>
  </diagram>
</mxfile>
